<mxfile host="app.diagrams.net" modified="2021-04-03T22:00:33.221Z" agent="5.0 (X11; Linux x86_64) AppleWebKit/537.36 (KHTML, like Gecko) Chrome/89.0.4389.116 Safari/537.36" etag="1UlAEMoRe9yESIksD93P" version="14.5.7" type="github">
  <diagram name="Page-1" id="c9db0220-8083-56f3-ca83-edcdcd058819">
    <mxGraphModel dx="1388" dy="743" grid="1" gridSize="10" guides="1" tooltips="1" connect="1" arrows="1" fold="1" page="1" pageScale="1.5" pageWidth="826" pageHeight="1169" background="#ffffff" math="0" shadow="0">
      <root>
        <mxCell id="0" style=";html=1;" />
        <mxCell id="1" style=";html=1;" parent="0" />
        <mxCell id="3d76a8aef4d5c911-1" value="" style="html=1;shadow=0;dashed=0;shape=mxgraph.bootstrap.rect;fillColor=#222222;strokeColor=none;whiteSpace=wrap;rounded=0;fontSize=12;fontColor=#000000;align=center;" parent="1" vertex="1">
          <mxGeometry x="40" y="70" width="1150" height="40" as="geometry" />
        </mxCell>
        <mxCell id="3d76a8aef4d5c911-2" value="FTD Analyzer" style="html=1;shadow=0;dashed=0;strokeColor=none;shape=mxgraph.bootstrap.rect;fontSize=14;whiteSpace=wrap;fillColor=none;fontColor=#999999;" parent="3d76a8aef4d5c911-1" vertex="1">
          <mxGeometry width="115" height="40" as="geometry" />
        </mxCell>
        <mxCell id="3d76a8aef4d5c911-3" value="Favorites" style="html=1;shadow=0;dashed=0;shape=mxgraph.bootstrap.rect;strokeColor=none;spacingRight=30;whiteSpace=wrap;fillColor=none;fontColor=#999999;" parent="3d76a8aef4d5c911-1" vertex="1">
          <mxGeometry x="115" width="129.375" height="40" as="geometry" />
        </mxCell>
        <mxCell id="3d76a8aef4d5c911-4" value="84" style="html=1;shadow=0;dashed=0;shape=mxgraph.bootstrap.rrect;rSize=8;strokeColor=none;fontColor=#ffffff;whiteSpace=wrap;textOpacity=0;fillColor=none;" parent="3d76a8aef4d5c911-3" vertex="1">
          <mxGeometry x="1" y="0.5" width="25" height="16" relative="1" as="geometry">
            <mxPoint x="-30" y="-8" as="offset" />
          </mxGeometry>
        </mxCell>
        <mxCell id="3d76a8aef4d5c911-5" value="&lt;font color=&quot;#999999&quot;&gt;Changelog&lt;/font&gt;" style="html=1;shadow=0;dashed=0;strokeColor=none;shape=mxgraph.bootstrap.rect;spacingRight=30;whiteSpace=wrap;fontColor=#FFFFFF;fillColor=none;" parent="3d76a8aef4d5c911-1" vertex="1">
          <mxGeometry x="244.375" width="158.125" height="40" as="geometry" />
        </mxCell>
        <mxCell id="3d76a8aef4d5c911-6" value="42" style="html=1;shadow=0;dashed=0;shape=mxgraph.bootstrap.rrect;rSize=8;strokeColor=none;fontColor=#ffffff;whiteSpace=wrap;fillColor=none;textOpacity=0;" parent="3d76a8aef4d5c911-5" vertex="1">
          <mxGeometry x="1" y="0.5" width="25" height="16" relative="1" as="geometry">
            <mxPoint x="-30" y="-8" as="offset" />
          </mxGeometry>
        </mxCell>
        <mxCell id="3d76a8aef4d5c911-7" value="Data Sources" style="html=1;shadow=0;dashed=0;strokeColor=none;shape=mxgraph.bootstrap.rect;whiteSpace=wrap;fillColor=#000000;fontColor=#FFFFFF;" parent="3d76a8aef4d5c911-1" vertex="1">
          <mxGeometry x="402.5" width="137.5" height="40" as="geometry" />
        </mxCell>
        <mxCell id="3d76a8aef4d5c911-8" value="Settings" style="html=1;shadow=0;dashed=0;fillColor=none;strokeColor=none;shape=mxgraph.bootstrap.rect;fontColor=#999999;whiteSpace=wrap;" parent="3d76a8aef4d5c911-1" vertex="1">
          <mxGeometry x="540" width="100.625" height="40" as="geometry" />
        </mxCell>
        <mxCell id="3d76a8aef4d5c911-10" value="Log Out" style="html=1;shadow=0;dashed=0;fillColor=none;strokeColor=none;shape=mxgraph.bootstrap.rect;fontColor=#999999;whiteSpace=wrap;" parent="3d76a8aef4d5c911-1" vertex="1">
          <mxGeometry x="1049.375" width="100.625" height="40" as="geometry" />
        </mxCell>
        <mxCell id="doQEG3IyqD5Emsoq-Yl8-25" value="Source Code" style="html=1;shadow=0;dashed=0;fillColor=none;strokeColor=none;shape=mxgraph.bootstrap.rect;fontColor=#999999;whiteSpace=wrap;" parent="3d76a8aef4d5c911-1" vertex="1">
          <mxGeometry x="920" width="137.5" height="40" as="geometry" />
        </mxCell>
        <mxCell id="OUFWiJHkfXgs1Zi_MWCu-25" value="Latest Site Update: April 5, 2021" style="html=1;shadow=0;dashed=0;shape=mxgraph.bootstrap.rect;strokeColor=none;fillColor=none;fontColor=#999999;align=left;spacingLeft=5;whiteSpace=wrap;rounded=0;" parent="1" vertex="1">
          <mxGeometry x="990" y="110" width="200" height="20" as="geometry" />
        </mxCell>
        <mxCell id="OUFWiJHkfXgs1Zi_MWCu-26" value="Latest SEC FTD Data: Jan 1, 2021" style="html=1;shadow=0;dashed=0;shape=mxgraph.bootstrap.rect;strokeColor=none;fillColor=none;fontColor=#999999;align=left;spacingLeft=5;whiteSpace=wrap;rounded=0;" parent="1" vertex="1">
          <mxGeometry x="990" y="130" width="200" height="20" as="geometry" />
        </mxCell>
        <mxCell id="doQEG3IyqD5Emsoq-Yl8-14" value="We pull data from these sources:" style="html=1;shadow=0;dashed=0;shape=mxgraph.bootstrap.rect;strokeColor=none;fillColor=none;align=left;spacingLeft=5;whiteSpace=wrap;rounded=0;fontSize=18;" parent="1" vertex="1">
          <mxGeometry x="50" y="210" width="430" height="20" as="geometry" />
        </mxCell>
        <mxCell id="OujDduBngwZ-swN-WXb4-2" value="" style="html=1;shadow=0;dashed=0;shape=mxgraph.bootstrap.rrect;rSize=5;strokeColor=#DFDFDF;html=1;whiteSpace=wrap;fillColor=#FFFFFF;fontColor=#000000;" parent="1" vertex="1">
          <mxGeometry x="50" y="260" width="1130" height="150" as="geometry" />
        </mxCell>
        <UserObject label="https://www.sec.gov/data/foiadocsfailsdatahtm" link="https://www.sec.gov/data/foiadocsfailsdatahtm" id="OujDduBngwZ-swN-WXb4-3">
          <mxCell style="strokeColor=inherit;fillColor=inherit;gradientColor=inherit;fontColor=inherit;html=1;shadow=0;dashed=0;shape=mxgraph.bootstrap.topButton;rSize=5;perimeter=none;whiteSpace=wrap;resizeWidth=1;align=left;spacing=10;" parent="OujDduBngwZ-swN-WXb4-2" vertex="1">
            <mxGeometry width="1130" height="30" relative="1" as="geometry" />
          </mxCell>
        </UserObject>
        <mxCell id="OujDduBngwZ-swN-WXb4-4" value="Daily Volume &amp;amp; Close Price - NASDAQ Historical API: Ex&amp;nbsp;https://api.nasdaq.com/api/quote/GME/historical?assetclass=stocks&amp;amp;fromdate=2011-04-03&amp;amp;limit=9999&amp;amp;todate=2021-04-03" style="strokeColor=inherit;fillColor=inherit;gradientColor=inherit;fontColor=inherit;html=1;shadow=0;dashed=0;perimeter=none;whiteSpace=wrap;resizeWidth=1;align=left;spacing=10;" parent="OujDduBngwZ-swN-WXb4-2" vertex="1">
          <mxGeometry width="1130" height="30" relative="1" as="geometry">
            <mxPoint y="30" as="offset" />
          </mxGeometry>
        </mxCell>
        <mxCell id="OujDduBngwZ-swN-WXb4-5" value="Daily Short Volume - Finra regsho custom parser&amp;nbsp;https://www.finra.org/filing-reporting/trf/trf-regulation-sho-2020" style="strokeColor=inherit;fillColor=inherit;gradientColor=inherit;fontColor=inherit;html=1;shadow=0;dashed=0;perimeter=none;whiteSpace=wrap;resizeWidth=1;align=left;spacing=10;" parent="OujDduBngwZ-swN-WXb4-2" vertex="1">
          <mxGeometry width="1130" height="30" relative="1" as="geometry">
            <mxPoint y="60" as="offset" />
          </mxGeometry>
        </mxCell>
        <mxCell id="OujDduBngwZ-swN-WXb4-6" value="" style="strokeColor=inherit;fillColor=inherit;gradientColor=inherit;fontColor=inherit;html=1;shadow=0;dashed=0;perimeter=none;whiteSpace=wrap;resizeWidth=1;align=left;spacing=10;" parent="OujDduBngwZ-swN-WXb4-2" vertex="1">
          <mxGeometry width="1130" height="30" relative="1" as="geometry">
            <mxPoint y="90" as="offset" />
          </mxGeometry>
        </mxCell>
        <mxCell id="OujDduBngwZ-swN-WXb4-7" value="" style="strokeColor=inherit;fillColor=inherit;gradientColor=inherit;fontColor=inherit;html=1;shadow=0;dashed=0;shape=mxgraph.bootstrap.bottomButton;rSize=5;perimeter=none;whiteSpace=wrap;resizeWidth=1;resizeHeight=0;align=left;spacing=10;" parent="OujDduBngwZ-swN-WXb4-2" vertex="1">
          <mxGeometry y="1" width="1130" height="30" relative="1" as="geometry">
            <mxPoint y="-30" as="offset" />
          </mxGeometry>
        </mxCell>
      </root>
    </mxGraphModel>
  </diagram>
</mxfile>
